CD_DA
CD_TEXT { LANGUAGE_MAP { 0:EN }
    LANGUAGE 0 {
        TITLE "Beyond The Infinite"
        PERFORMER "Juno Reactor"
        DISC_ID "680E2A08"
}}

//Track 1
TRACK AUDIO
    CD_TEXT { LANGUAGE 0 {
        TITLE "Guardian Angel"
        PERFORMER "Juno Reactor"
    }}
    AUDIOFILE "01 - Guardian Angel.wav" 00:00:00 07:11:70

//Track 2
TRACK AUDIO
    CD_TEXT { LANGUAGE 0 {
        TITLE "Magnetic"
        PERFORMER "Juno Reactor"
    }}
    AUDIOFILE "01 - Guardian Angel.wav" 07:11:70
    START
    AUDIOFILE "02 - Magnetic.wav" 00:00:00 08:08:18

//Track 3
TRACK AUDIO
    CD_TEXT { LANGUAGE 0 {
        TITLE "Ice Cube"
        PERFORMER "Juno Reactor"
    }}
    AUDIOFILE "02 - Magnetic.wav" 08:08:18
    START
    AUDIOFILE "03 - Ice Cube.wav" 00:00:00 07:03:18

//Track 4
TRACK AUDIO
    CD_TEXT { LANGUAGE 0 {
        TITLE "Feel the Universe"
        PERFORMER "Juno Reactor"
    }}
    AUDIOFILE "03 - Ice Cube.wav" 07:03:18
    START
    AUDIOFILE "04 - Feel the Universe.wav" 00:00:00 07:39:55

//Track 5
TRACK AUDIO
    CD_TEXT { LANGUAGE 0 {
        TITLE "Samurai"
        PERFORMER "Juno Reactor"
    }}
    AUDIOFILE "04 - Feel the Universe.wav" 07:39:55
    START
    AUDIOFILE "05 - Samurai.wav" 00:00:00 08:17:05

//Track 6
TRACK AUDIO
    CD_TEXT { LANGUAGE 0 {
        TITLE "Silver"
        PERFORMER "Juno Reactor"
    }}
    AUDIOFILE "05 - Samurai.wav" 08:17:05
    START
    AUDIOFILE "06 - Silver.wav" 00:00:00 06:36:00

//Track 7
TRACK AUDIO
    CD_TEXT { LANGUAGE 0 {
        TITLE "Rotorblade"
        PERFORMER "Juno Reactor"
    }}
    AUDIOFILE "06 - Silver.wav" 06:36:00
    START
    AUDIOFILE "07 - Rotorblade.wav" 00:00:00 08:19:40

//Track 8
TRACK AUDIO
    CD_TEXT { LANGUAGE 0 {
        TITLE "Mars"
        PERFORMER "Juno Reactor"
    }}
    AUDIOFILE "07 - Rotorblade.wav" 08:19:40
    START
    AUDIOFILE "08 - Mars.wav" 00:00:00